<svg width="75" height="75" viewBox="0 0 75 75" fill="none" xmlns="http://www.w3.org/2000/svg">
<path d="M73.6029 34.1966L40.8089 1.40701C38.9326 -0.469004 35.8327 -0.469004 33.9564 1.40701L27.1855 8.177L35.8327 16.823C37.8721 16.1705 40.1562 16.5783 41.7062 18.2096C43.3377 19.841 43.7456 22.1247 43.093 24.164L51.4139 32.4837C53.4534 31.8311 55.7375 32.239 57.369 33.8704C59.6531 36.0726 59.6531 39.7431 57.369 42.0269C55.0849 44.3107 51.4955 44.3107 49.2114 42.0269C47.4982 40.314 47.0902 37.867 47.9876 35.7464L40.2379 27.9975V48.3891C40.8089 48.6337 41.2984 49.0416 41.7877 49.4494C44.072 51.6518 44.072 55.3223 41.7877 57.606C39.5036 59.8084 35.9142 59.8084 33.6301 57.606C31.346 55.3223 31.346 51.7333 33.6301 49.4494C34.2011 48.8785 34.8537 48.4706 35.5064 48.226V27.5898C34.8537 27.345 34.2011 26.8556 33.6301 26.3663C31.917 24.6534 31.5091 22.2064 32.4065 20.0856L23.8409 11.6028L1.4072 34.0335C-0.469067 35.9095 -0.469067 39.009 1.4072 40.885L34.1196 73.593C35.9959 75.469 39.0957 75.469 40.972 73.593L73.5212 41.0481C75.4791 39.0905 75.4791 36.0726 73.6029 34.1966Z" fill="white"/>
</svg>
