<svg width="75" height="75" viewBox="0 0 75 75" fill="none" xmlns="http://www.w3.org/2000/svg">
<path d="M37.4996 1.65686C28.7734 1.65717 20.3318 4.7628 13.6859 10.4175C7.03963 16.0722 2.62245 23.9075 1.22463 32.5212C-0.173178 41.1347 1.53963 49.9647 6.05651 57.4312C10.5731 64.8972 17.5993 70.5128 25.8778 73.2728C27.7153 73.5944 28.4043 72.4919 28.4043 71.5272C28.4043 70.6544 28.3584 67.7603 28.3584 64.6825C19.1249 66.3822 16.7362 62.4319 16.0012 60.3647C15.1856 58.3544 13.8928 56.5728 12.2343 55.1737C10.9481 54.4847 9.11057 52.785 12.1884 52.739C13.3637 52.8665 14.4906 53.2756 15.4743 53.9312C16.4578 54.5869 17.269 55.4703 17.8387 56.5059C18.3412 57.4087 19.0171 58.2037 19.8274 58.845C20.6378 59.4862 21.5668 59.9615 22.5612 60.2428C23.5556 60.5244 24.5956 60.6072 25.6218 60.4862C26.6481 60.3653 27.6406 60.0431 28.5418 59.5378C28.7009 57.6694 29.5337 55.9225 30.8849 54.6225C22.7081 53.7037 14.1637 50.534 14.1637 36.4772C14.1121 32.825 15.4596 29.2912 17.9306 26.6009C16.8071 23.4265 16.9384 19.9428 18.2981 16.8622C18.2981 16.8622 21.3756 15.8975 28.4043 20.629C34.4174 18.9753 40.7656 18.9753 46.779 20.629C53.8074 15.8515 56.8853 16.8622 56.8853 16.8622C58.2449 19.9428 58.3765 23.4265 57.2528 26.6009C59.7306 29.2865 61.0799 32.8237 61.0196 36.4772C61.0196 50.58 52.4293 53.7037 44.2524 54.6225C45.1293 55.5112 45.8046 56.5787 46.2328 57.7515C46.6609 58.925 46.8315 60.1765 46.7331 61.4212C46.7331 66.3369 46.6871 70.2869 46.6871 71.5272C46.6871 72.4919 47.3762 73.6403 49.2137 73.2728C57.4774 70.4906 64.4834 64.8619 68.9809 57.3919C73.4787 49.9215 75.1749 41.0959 73.7674 32.4906C72.3599 23.8856 67.9403 16.0606 61.2968 10.4128C54.6537 4.76467 46.2193 1.66155 37.4996 1.65686Z" fill="white"/>
</svg>
