<svg width="75" height="75" viewBox="0 0 75 75" fill="none" xmlns="http://www.w3.org/2000/svg">
<g clip-path="url(#clip0_1446_344)">
<path d="M67.5413 59.5248C67.2774 59.0419 66.9551 58.4849 66.4922 57.9954C65.7978 57.2666 65.3716 56.3441 65.1099 55.0039C64.8352 53.5876 64.3204 51.9232 62.8494 50.7897C63.7904 46.5734 63.1804 42.3745 60.9653 37.6925C59.237 34.044 56.771 30.9612 54.3851 27.9806L53.8897 27.3605C51.7179 24.6388 50.7553 21.7801 50.8613 18.3622C50.9522 15.4643 50.7229 12.4706 50.1756 9.4661C49.2519 4.39474 46.2387 1.12697 41.6874 0.267601C40.7443 0.0913759 39.7082 0 38.6115 0C37.7397 0 36.7987 0.056566 35.8124 0.169698C30.7138 0.750587 27.1836 4.0597 26.3681 9.02228C25.942 11.6265 25.8295 14.4504 26.035 17.4202C26.3811 22.4328 25.2324 26.3511 22.4139 29.7515C20.904 31.5747 19.4698 33.6589 17.8972 36.311C15.8552 39.755 13.5753 44.4108 13.9409 50.0152C13.7765 50.2176 13.6207 50.4177 13.4671 50.6157C12.5716 51.7579 11.8643 52.6586 10.6572 53.0132C7.30436 53.9923 5.91778 56.3397 6.53212 59.9861C6.77655 61.4372 6.73329 62.5729 6.39584 63.6694C5.80963 65.5643 5.87452 67.0808 6.59052 68.3078C7.32166 69.5566 8.66281 70.3725 10.6897 70.8011C11.1028 70.8881 11.5181 70.9534 11.9227 70.999C15.0289 71.3406 17.4019 71.7866 19.6321 72.9462C21.0792 73.6968 22.721 73.9731 23.8307 74.1123C24.3499 74.1798 24.8539 74.2124 25.3276 74.2124C27.9926 74.2124 30.0671 73.1834 31.4991 71.1535C32.0031 71.0991 32.5071 71.0404 33.0111 70.9838C35.1093 70.7467 37.279 70.4986 39.3923 70.3986C39.4962 70.392 39.6022 70.3899 39.7082 70.3899C40.4112 70.3899 41.1531 70.4899 41.9405 70.5965C42.5224 70.6749 43.1238 70.7554 43.7403 70.8011C45.0208 73.4727 47.4068 75 50.3184 75C50.6277 75 50.9457 74.9826 51.2637 74.9478C53.9503 74.6584 56.3427 73.3378 58.3761 71.023C59.4901 69.7546 60.8939 68.7103 62.6656 67.8335L62.8105 67.7617C63.8575 67.2439 64.9412 66.7065 65.9752 66.0343C68.3784 64.4657 68.9495 62.0921 67.5413 59.5248ZM65.032 64.5723C64.0413 65.2206 62.9641 65.7449 61.8998 66.2736C60.072 67.1787 58.4474 68.3143 57.0782 69.8721C55.4904 71.6778 53.5414 72.9506 51.0776 73.2182C48.4429 73.501 46.3209 72.324 45.2263 69.8851C44.9581 69.2912 44.6618 69.1128 44.0344 69.0758C42.4554 68.9822 40.8741 68.5841 39.3102 68.6603C36.444 68.7973 33.5908 69.1802 30.7376 69.487C30.5689 69.5044 30.3786 69.7046 30.2747 69.8677C28.793 72.2 26.5433 72.7025 24.047 72.3871C22.8141 72.2304 21.5162 71.965 20.426 71.3994C17.7956 70.0331 14.9813 69.5849 12.1108 69.2694C11.7539 69.2281 11.397 69.1715 11.0466 69.0976C8.11553 68.4797 7.16375 67.0438 8.04848 64.185C8.51788 62.6621 8.49192 61.2109 8.23883 59.6967C7.78457 57.0033 8.55465 55.439 11.1396 54.6841C13.32 54.0466 14.287 52.2713 15.5784 50.7571C15.6952 50.62 15.7017 50.3459 15.6865 50.1414C15.2972 45.3594 17.032 41.1692 19.3833 37.203C20.6899 34.9991 22.1154 32.8322 23.7442 30.8655C27.0408 26.8863 28.1137 22.3784 27.7612 17.3005C27.5773 14.6506 27.6465 11.9202 28.077 9.30511C28.7757 5.03655 31.724 2.38665 36.007 1.89931C37.7743 1.69698 39.6346 1.65129 41.3695 1.97981C45.5854 2.77391 47.7486 5.79584 48.4732 9.77939C48.9815 12.5751 49.2217 15.4708 49.133 18.3078C49.0118 22.1913 50.1691 25.4786 52.5399 28.4505C55.0643 31.6139 57.6471 34.7337 59.4014 38.441C61.385 42.6312 62.2567 46.9302 60.8377 51.6361C62.5596 52.317 63.1068 53.7703 63.4118 55.339C63.6974 56.7944 64.2035 58.1063 65.2397 59.1985C65.5577 59.5335 65.8021 59.9534 66.0271 60.3646C66.9897 62.1203 66.6998 63.4866 65.032 64.5723Z" fill="white"/>
<path d="M36.7013 15.1531C36.8202 14.5592 37.0257 13.9587 37.3113 13.4279C38.6503 10.9368 41.5705 10.8889 43.0198 13.3082C44.1749 15.238 44.0257 17.7095 42.5893 19.463C42.0183 19.2259 41.4948 19.0083 41.1357 18.8582C41.2244 17.8074 41.4148 16.8871 41.3477 15.9842C41.2893 15.1792 40.8891 14.3569 39.9222 14.3525C39.0202 14.346 38.6762 15.127 38.4664 15.8754C38.3323 16.3519 38.3366 16.8675 38.2804 17.3679C36.5823 17.0263 36.379 16.7718 36.7013 15.1531Z" fill="white"/>
<path d="M30.0972 12.81C30.8673 12.0746 31.8126 11.9985 32.6238 12.6751C33.8308 13.6846 34.2375 15.0683 34.0601 16.5607C34.0125 16.948 33.3117 17.2548 32.7406 17.7443C32.5957 16.8653 32.574 15.4512 31.4579 15.1575C30.6229 14.9399 30.4693 16.2583 30.4585 16.7935C30.452 17.1068 31.0274 18.9691 30.8695 19.0953C30.8478 19.1127 30.6099 19.3085 30.3806 19.4978C28.6241 18.0162 28.4965 14.3416 30.0994 12.81H30.0972Z" fill="white"/>
<path d="M42.1783 19.8112C40.7095 19.1455 39.2537 18.4427 37.7676 17.8183C37.0495 17.5159 36.2751 17.3528 35.5245 17.1287C34.1898 17.2266 33.1385 17.7944 32.1781 18.6124C31.5227 19.1737 30.8586 19.7285 30.1707 20.2485C28.4661 21.5365 28.4445 22.6874 30.1447 24.0341C30.8759 24.6171 31.6676 25.124 32.3771 25.731C34.1076 27.2148 35.8143 27.4541 37.8433 26.4207C39.1218 25.7702 40.4002 25.1153 41.6613 24.4322C42.068 24.2103 42.4573 23.9318 42.7969 23.6142C44.3457 22.163 44.097 20.6836 42.1783 19.8112ZM34.5251 24.839C32.4506 24.6672 30.984 23.4031 29.7035 21.915C29.7683 21.8215 29.8332 21.7257 29.9003 21.6322C30.2248 21.9172 30.5536 22.1978 30.8759 22.4872C33.344 24.715 35.2822 24.9892 38.2522 23.4815C39.1499 23.0268 39.9978 22.4763 40.8826 21.9977C41.2935 21.7736 41.7413 21.6191 42.1718 21.4342C42.2129 21.5452 42.2561 21.6561 42.2972 21.7671C39.775 22.9658 37.6184 25.0958 34.5251 24.839Z" fill="white"/>
<path d="M29.4918 69.4826C28.5443 71.173 26.8873 71.5124 24.4992 71.6539C23.5712 71.395 21.9489 71.1926 20.5666 70.5008C17.9536 69.1954 15.1999 68.6928 12.3597 68.4187C12.072 68.3926 11.7886 68.3469 11.5053 68.2925C8.74077 67.7573 8.0875 66.8109 8.97439 64.1458C9.5195 62.5032 9.30751 60.939 9.08255 59.329C8.78836 57.2186 9.33996 56.1591 11.356 55.513C13.0952 54.9538 14.339 53.9139 15.3859 52.4432C17.1597 49.9543 19.1779 49.8781 21.0988 52.2604C22.0419 53.4287 22.7017 54.8233 23.5107 56.1047C24.7004 57.991 25.8901 59.8773 27.1145 61.7418C27.7483 62.7056 28.4837 63.6041 29.1197 64.5679C30.1472 66.1256 30.4392 67.79 29.4918 69.4826Z" fill="white"/>
<path d="M45.4211 63.1255C41.1164 65.9582 36.589 67.0395 31.6051 64.9618C29.8356 64.2221 28.9639 62.7318 27.9602 61.3067C28.0467 61.2132 28.0857 61.1305 28.1419 61.1153C30.2207 60.5605 30.8328 59.3791 29.6691 57.5212C28.8038 56.1396 27.5881 54.9561 26.4179 53.7965C25.7105 53.0938 24.8085 52.5803 23.9649 52.0277C20.5558 49.7847 19.4504 47.2762 20.1816 43.2339C20.7569 40.0466 22.3101 37.2923 23.9627 34.588C24.0514 34.6293 24.1379 34.6685 24.2245 34.7098C23.8026 35.5627 23.3917 36.422 22.9569 37.2684C21.6763 39.7507 20.7375 42.3332 21.1204 45.1789C21.2696 46.3015 21.752 47.3784 22.083 48.4771C22.1868 48.4445 22.2928 48.4119 22.3966 48.377C22.6302 46.9999 22.7168 45.577 23.1299 44.2564C23.807 42.0895 24.6182 39.9552 25.518 37.871C27.0928 34.2181 28.8233 30.6305 29.5869 26.684C29.7145 26.0161 29.8032 25.3416 29.946 24.4496C30.7377 25.0501 31.4104 25.5113 32.0269 26.04C33.9629 27.7043 35.7864 28.0046 37.9972 26.8537C39.9591 25.8333 41.8713 24.7194 43.7619 23.6686C44.5904 25.99 45.3778 28.5137 46.388 30.9417C47.6231 33.9114 49.0984 36.7767 50.3638 39.7333C51.0171 41.2563 51.4843 42.864 51.9559 44.4566C52.3171 45.6793 52.2631 45.6945 53.7643 45.8729C55.1162 40.8429 53.0829 36.9377 50.0372 33.2565C50.1929 33.337 50.3833 33.3849 50.4979 33.5067C53.7124 36.9311 55.8084 40.8081 55.2525 45.7119C55.1876 46.2972 55.391 46.5212 55.8625 46.7801C56.7429 47.261 57.6601 47.7439 58.3934 48.414C58.9147 48.8883 59.2262 49.6433 59.4944 50.3286C59.6004 50.6049 59.3387 51.0269 59.1462 51.3489C58.2376 48.8927 55.3996 46.9194 52.7303 46.9346C51.5233 46.9411 50.8332 47.485 50.4525 48.6903C50.3595 48.9862 50.2643 49.4039 50.0437 49.5149C47.7551 50.6745 47.3462 52.8305 47.0304 55.0627C46.6995 57.4211 46.3534 59.7773 45.9705 62.1269C45.9121 62.4859 45.7044 62.9384 45.4211 63.1255Z" fill="white"/>
<path d="M56.4792 51.2793C55.7265 52.3214 54.6817 53.0263 53.4119 53.0524C52.8343 53.0633 51.941 52.6586 51.7247 52.1931C51.2791 51.2271 51.0389 50.0979 51.0022 49.0254C50.894 45.8968 58.1903 48.9101 56.4792 51.2793Z" fill="white"/>
<path d="M64.4739 63.8979C63.626 64.4374 62.7175 64.8899 61.809 65.3207C59.767 66.291 57.9391 67.5181 56.4487 69.2651C55.259 70.6597 53.7707 71.6692 51.9753 72.1695C48.2071 73.2182 45.1961 70.5683 45.7715 66.687C45.8774 65.9712 45.9964 65.2446 46.23 64.5679C47.277 61.5286 47.6945 58.3892 47.9065 55.1976C47.9714 54.2403 48.2115 53.2547 48.577 52.3671C48.8712 51.6491 49.4747 51.0617 50.0437 50.272C50.4611 51.425 50.658 52.2453 51.0387 52.9697C51.772 54.3687 52.9898 54.943 54.4738 54.4513C55.5445 54.0989 56.6023 53.555 57.5108 52.8827C59.0488 51.747 61.2249 52.1691 62.0383 53.9096C62.0707 53.9749 62.1183 54.0358 62.1334 54.1054C62.6288 56.5856 63.6476 58.7873 65.2073 60.8107C66.1785 62.0703 65.8367 63.032 64.4739 63.8979Z" fill="white"/>
</g>
<defs>
<clipPath id="clip0_1446_344">
<rect width="62.2984" height="75" fill="white" transform="translate(6)"/>
</clipPath>
</defs>
</svg>
