<svg width="75" height="75" viewBox="0 0 75 75" fill="none" xmlns="http://www.w3.org/2000/svg">
<path d="M75 66.6846L64.1113 75V70.7295H41.1973C41.3596 70.6428 41.5222 70.5731 41.6846 70.4863C44.171 69.219 46.4622 67.5694 48.5098 65.5557C48.786 65.278 49.0464 65.018 49.29 64.7578C49.5663 64.4627 49.8587 64.1501 50.1348 63.8203C50.4598 63.4384 50.7856 63.0389 51.0781 62.6396H64.1113V58.3691L75 66.6846ZM30.0166 16.7363C30.7152 16.7363 31.3977 16.7712 32.0801 16.8232C34.0952 16.9968 36.0618 17.4138 37.9795 18.0908C38.6618 18.3337 39.328 18.594 39.9941 18.9062C43.0493 20.2952 45.796 22.2573 48.1523 24.7744C50.5089 27.2917 52.3616 30.2257 53.6455 33.4893C54.9781 36.8571 55.6611 40.4508 55.6611 44.1484C55.6611 47.846 54.9781 51.44 53.6455 54.8252C52.5079 57.707 50.9152 60.3464 48.9326 62.6553C48.6726 62.9504 48.4124 63.2451 48.1523 63.54C47.9086 63.8005 47.6647 64.0442 47.4209 64.3047C45.5034 66.1967 43.3585 67.7416 41.0186 68.9395C40.6936 69.113 40.3521 69.2695 40.0107 69.4258C39.9946 69.4258 39.9945 69.4432 39.9785 69.4434C38.0283 70.3288 35.9316 70.7627 33.8027 70.7627H0V62.6895H31.3809C40.8715 62.6895 48.6559 54.5827 48.7861 44.4443V44.1836C48.7861 33.1077 40.3684 24.1153 30 24.1152C19.6319 24.0806 11.2141 33.0553 11.2139 44.1484H15.5684L7.78418 55.7803L0 44.1484H4.35547C4.35552 40.4508 5.03756 36.8568 6.37012 33.4717C7.67023 30.208 9.50685 27.274 11.8633 24.7568C14.2196 22.2397 16.9663 20.2612 20.0215 18.8896C23.1905 17.466 26.555 16.7363 30.0166 16.7363ZM50.7725 0C53.3401 3.95318e-05 55.8269 0.537727 58.167 1.59668C60.4258 2.62093 62.4565 4.08001 64.1953 5.9375C65.9343 7.79507 67.3 9.9649 68.2588 12.3779C69.1852 14.7042 69.6885 17.1696 69.7373 19.7041H73.3945L66.7471 29.6348L60.1006 19.7041H63.7246C63.4483 12.326 57.7442 6.42399 50.7725 6.42383C44.8895 6.42383 39.8996 10.6423 38.3232 16.3887C36.4057 15.729 34.4233 15.312 32.4082 15.1211C32.6356 14.2009 32.9287 13.2808 33.2861 12.3955C34.2449 9.98246 35.6099 7.81258 37.3486 5.95508C39.0875 4.0975 41.119 2.62117 43.3779 1.61426C45.7181 0.537953 48.2049 0 50.7725 0Z" fill="white"/>
</svg>
