<svg width="75" height="75" viewBox="0 0 75 75" fill="none" xmlns="http://www.w3.org/2000/svg">
<g clip-path="url(#clip0_1447_789)">
<path d="M65.1239 0.75H9.96608C4.88014 0.75 0.762174 4.86797 0.762174 9.9375C0.745768 9.9375 0.762174 9.28125 0.762174 65.0625C0.762174 70.132 4.88014 74.25 9.94967 74.25H65.1075C70.1606 74.2172 74.2458 70.1156 74.2458 65.0625V9.9375C74.2622 4.88437 70.177 0.782813 65.1239 0.75ZM33.0825 56.4164C33.0497 58.8281 31.0973 60.7805 28.6692 60.7805H15.1012C12.6731 60.7969 10.688 58.8445 10.6715 56.4164V14.7117C10.6715 12.2836 12.6403 10.2984 15.0848 10.2984H28.6856C31.1137 10.2984 33.0989 12.2672 33.0989 14.7117V56.4164H33.0825ZM64.763 38.0414C64.763 40.4695 62.7942 42.4547 60.3497 42.4547H47.0606C44.6325 42.4547 42.6473 40.4859 42.6473 38.0414V14.7281C42.6473 12.3 44.6161 10.3148 47.0442 10.3148H60.3497C62.7778 10.3148 64.763 12.2836 64.763 14.7281V38.0414Z" fill="white"/>
</g>
<defs>
<clipPath id="clip0_1447_789">
<rect width="75" height="75" fill="white"/>
</clipPath>
</defs>
</svg>
