<svg width="75" height="75" viewBox="0 0 75 75" fill="none" xmlns="http://www.w3.org/2000/svg">
<path d="M67.6758 0C71.7182 0 75 3.28184 75 7.32422V67.6758C75 71.7182 71.7182 75 67.6758 75H7.32422C3.28183 75 0 71.7182 0 67.6758V7.32422C2.10762e-07 3.28184 3.28183 7.54203e-06 7.32422 0H67.6758ZM33.3389 5.49316L5.49316 53.7236V66.5771C5.49316 68.1941 6.80567 69.5068 8.42285 69.5068H34.1299L20.6973 46.2402L44.2217 5.49316H33.3389ZM24.3721 47.6162L37.0098 69.5068H66.5771C68.1863 69.5068 69.4944 68.2061 69.5068 66.5996V47.6162H24.3721ZM27.1953 39.9746C26.5816 41.0368 26.5816 42.35 27.1953 43.4121C27.8091 44.4758 28.9438 45.12 30.1719 45.1201H41.1748L32.6992 30.4404L27.1953 39.9746ZM47.1025 5.49316L34.1387 27.9453L44.0566 45.1201H69.5068V8.40039C69.4944 6.7939 68.1863 5.49316 66.5771 5.49316H47.1025Z" fill="white"/>
</svg>
