<svg width="75" height="75" viewBox="0 0 75 75" fill="none" xmlns="http://www.w3.org/2000/svg">
<path d="M67.6758 0C71.7182 0 75 3.28184 75 7.32422V67.6758C75 71.7182 71.7182 75 67.6758 75H7.32422C3.28184 75 0 71.7182 0 67.6758V7.32422C0 3.28184 3.28184 0 7.32422 0H67.6758ZM10.127 69.5059H44.3887L27.2676 39.8643L10.127 69.5059ZM34.625 47.6143L47.2695 69.5059H66.6367C68.2267 69.4745 69.5078 68.1744 69.5078 66.5771V47.6143H34.625ZM19.4219 29.6084L5.49414 53.7236L5.50195 66.7939C5.58617 67.947 6.33974 68.9161 7.37598 69.3135L30.3096 29.6084H19.4219ZM34.752 29.5625C33.7917 29.5745 32.8857 30.1383 32.4082 30.957C31.4436 32.6284 29.5166 35.9707 29.5166 35.9707C29.5159 35.9719 29.5015 35.9958 29.4951 36.0078C29.0251 36.8455 29.0242 37.9087 29.4951 38.7314C29.5159 38.7688 32.3735 43.7147 32.3809 43.7275C32.3809 43.7275 32.4021 43.7644 32.4131 43.7822C32.9039 44.6077 33.8261 45.1132 34.7744 45.1172C34.8229 45.1172 38.4657 45.1219 40.2881 45.1143C41.249 45.1023 42.1533 44.5678 42.6309 43.749C43.6035 42.0654 44.5833 40.3859 45.5479 38.6982C46.0181 37.8605 45.9995 36.8238 45.5293 36.001L45.5049 35.96L42.626 30.9756C42.626 30.9756 42.6165 30.9585 42.6113 30.9502C42.1213 30.1245 41.2141 29.5674 40.2656 29.5635H40.2324L34.7998 29.5615C34.7958 29.5616 34.7669 29.5624 34.752 29.5625ZM44.7256 45.1172H69.5078V8.42285C69.5078 7.13628 68.6758 6.04182 67.5215 5.64844L44.7256 45.1172ZM33.3506 5.49316L32.0703 7.71094L47.7598 34.875L64.7305 5.49316H33.3506ZM20.8633 27.1133H40.3955L30.6289 10.2051L20.8633 27.1133Z" fill="white"/>
</svg>
