<svg width="75" height="75" viewBox="0 0 75 75" fill="none" xmlns="http://www.w3.org/2000/svg">
<path d="M67.6758 0C71.7182 0 75 3.28184 75 7.32422V67.6758C75 71.7182 71.7182 75 67.6758 75H7.32422C3.28184 75 0 71.7182 0 67.6758V7.32422C0 3.28184 3.28184 0 7.32422 0H67.6758ZM5.49609 53.7236V66.5771C5.49609 68.1941 6.80859 69.5068 8.42578 69.5068H34.1436L15.2617 36.8154L5.49609 53.7236ZM18.1973 31.7295C17.2722 33.3301 17.2732 35.3098 18.1982 36.9102C22.9232 45.082 37.0264 69.5068 37.0264 69.5068H47.9131L22.1465 24.8955C22.1465 24.8955 19.906 28.7729 18.1973 31.7295ZM23.7471 22.124L50.7949 69.5068H61.6816L29.0312 12.9775L23.7471 22.124ZM33.3535 5.49316L30.4717 10.4824L64.5635 69.5068H66.5801C68.1972 69.5067 69.5098 68.194 69.5098 66.5771V59.2217L38.4766 5.49316H33.3535ZM69.5098 54.2324V8.42285C69.5098 6.80595 68.1972 5.49327 66.5801 5.49316H41.3584L69.5098 54.2324Z" fill="white"/>
</svg>
