<svg width="75" height="75" viewBox="0 0 75 75" fill="none" xmlns="http://www.w3.org/2000/svg">
<path d="M39.4082 0C39.6987 0.0843331 40.0015 0.037393 40.292 0.0654297C41.8014 0.19668 43.2992 0.387109 44.7871 0.677734C49.4692 1.6005 53.811 3.3536 57.8262 5.94238C60.944 7.94863 63.695 10.369 66.0977 13.1855C68.0289 15.4462 69.6679 17.9038 71.0059 20.5596C72.5889 23.6962 73.7185 26.9828 74.3613 30.4395C74.7001 32.2662 74.9549 34.112 74.9629 35.9775C74.9629 36.1006 74.9906 36.2318 75 36.3535V38.5771C74.9626 38.7176 74.9625 38.8674 74.9531 39.0186C74.9531 39.3761 74.9529 39.7352 74.9248 40.0928C74.7547 42.3722 74.3972 44.6238 73.832 46.8457C72.7486 51.0188 71.0044 54.8889 68.583 58.458C66.7831 61.1151 64.6834 63.5073 62.2715 65.626C59.8701 67.7354 57.2398 69.5173 54.3857 70.957C51.0965 72.6137 47.6398 73.7637 44.0117 74.3945C42.6175 74.6383 41.2137 74.7994 39.8008 74.8838C39.4285 74.9266 39.0345 74.917 38.6475 75H36.4248C36.3218 74.9626 36.2172 74.9532 36.1143 74.9531C34.9263 74.8969 33.747 74.802 32.5791 74.6426C30.395 74.36 28.2457 73.8791 26.1553 73.2109C22.566 72.0632 19.2215 70.4138 16.1211 68.2656C13.2471 66.2688 10.7044 63.9151 8.48926 61.2031C5.87899 58.0196 3.84475 54.5047 2.40234 50.6436C1.11136 47.2165 0.340577 43.6661 0.103516 40.002C0.103516 39.8037 0.065625 39.6051 0 39.4082V35.5361C0.065511 35.3662 0.0941482 35.1881 0.103516 35.0088C0.150393 34.1329 0.244203 33.2571 0.359375 32.3906C0.924557 28.2094 2.16661 24.2434 4.0791 20.4854C5.39826 17.8939 7.00083 15.4852 8.88379 13.2607C10.7494 11.0576 12.8412 9.08658 15.1582 7.36426C18.9361 4.55732 23.0919 2.53287 27.6318 1.29004C29.8362 0.688722 32.0878 0.292363 34.3672 0.103516C34.7717 0.0660156 35.1981 0.103125 35.6025 0H39.4082ZM29.2793 38.2451C27.0253 37.7509 24.7554 37.4327 22.4385 37.5117C21.7849 37.5372 21.1309 37.6088 20.4854 37.7227C18.6119 38.0495 17.0226 38.9134 15.7236 40.2793C13.5045 42.6056 12.6213 45.3803 13.1689 48.5449C13.9551 53.0662 17.9676 56.283 22.5264 56.2471C23.109 56.2645 23.7644 56.1926 24.418 56.0547C26.3545 55.6301 27.9978 54.7497 29.2607 53.1895C30.0294 52.2386 30.6753 51.2078 31.2324 50.123C31.8873 48.8455 32.4334 47.5142 32.9102 46.167C33.4927 44.5371 33.9888 42.8709 34.3691 41.1875C34.5807 40.2446 34.3431 39.6536 33.2998 39.3281C31.974 38.9143 30.6399 38.5451 29.2793 38.2451ZM51.7979 37.5117C49.4809 37.4327 47.211 37.7509 44.957 38.2451C43.5964 38.5451 42.2623 38.9143 40.9365 39.3281C39.8932 39.6536 39.6556 40.2446 39.8672 41.1875C40.2475 42.8709 40.7436 44.5372 41.3262 46.167C41.8029 47.5142 42.3491 48.8455 43.0039 50.123C43.561 51.2078 44.2069 52.2386 44.9756 53.1895C46.2385 54.7497 47.8818 55.6301 49.8184 56.0547C50.4718 56.1926 51.1265 56.2644 51.709 56.2471C56.2679 56.2832 60.2812 53.0664 61.0674 48.5449C61.615 45.3803 60.7318 42.6056 58.5127 40.2793C57.2137 38.9134 55.6244 38.0495 53.751 37.7227C53.1054 37.6088 52.4514 37.5372 51.7979 37.5117ZM43.2646 14.4961C41.0923 12.522 38.5631 11.7326 35.7158 12.1719C31.0861 12.8899 27.7283 17.1539 27.7471 21.9404C27.7203 22.6301 27.8423 23.3828 28.0459 24.1367C28.433 25.5697 29.0734 26.8839 29.8301 28.124C31.551 30.9457 33.7218 33.3603 36.0762 35.6035C36.269 35.7883 36.5 35.9433 36.7451 36.0625C36.9915 36.1896 37.2378 36.1899 37.4922 36.0801C37.7372 35.9703 37.9569 35.8148 38.1416 35.6113C38.9585 34.7663 39.7673 33.92 40.54 33.0469C41.6288 31.8068 42.6673 30.5308 43.6074 29.1621C44.4605 27.9206 45.2236 26.6158 45.7861 25.2002C46.3472 23.7941 46.6203 22.3436 46.4355 20.8184C46.1289 18.3018 45.1008 16.1675 43.2646 14.4961Z" fill="white"/>
</svg>
