<svg width="75" height="75" viewBox="0 0 75 75" fill="none" xmlns="http://www.w3.org/2000/svg">
<path d="M37.5 37.5C37.5 30.5964 44.1039 25 52.2502 25C60.3961 25 67 30.5964 67 37.5C67 44.4036 60.3961 50.0001 52.2502 50.0001C44.1039 50.0001 37.5 44.4036 37.5 37.5Z" fill="white"/>
<path d="M8 62.4998C8 55.5965 14.6038 50 22.75 50H37.5001V62.4998C37.5001 69.4034 30.8964 74.9999 22.75 74.9999C14.6038 74.9999 8 69.4034 8 62.4998Z" fill="white"/>
<path d="M37.5 0.000244141V25H52.2502C60.3965 25 67 19.4037 67 12.5001C67 5.59644 60.3965 0.000244141 52.2502 0.000244141H37.5Z" fill="#EDEDED"/>
<path d="M8 12.5C8 19.4036 14.6038 25 22.75 25H37.5001V0H22.75C14.6038 0 8 5.59656 8 12.5Z" fill="white"/>
<path d="M8 37.5C8 44.4036 14.6038 50.0001 22.75 50.0001H37.5001V25H22.75C14.6038 25 8 30.5964 8 37.5Z" fill="#EDEDED"/>
</svg>
