<svg width="75" height="75" viewBox="0 0 75 75" fill="none" xmlns="http://www.w3.org/2000/svg">
<path d="M61.7188 0C69.0624 2.77564e-05 75 6.09006 75 13.6221V61.3779C75 68.9099 69.0624 75 61.7188 75H13.2812C5.93752 75 0 68.9099 0 61.3779V13.6221C0 6.09005 5.93752 0 13.2812 0H61.7188ZM49.9688 27.7471C49.6879 27.7471 49.5626 27.8752 49.5625 28.1953V52.875C49.5625 53.1955 49.7189 53.3875 50.0312 53.3877H56.1572C56.438 53.3875 56.5625 53.2274 56.5625 52.875V28.1953C56.5624 27.9072 56.4379 27.7472 56.1572 27.7471H49.9688ZM26.3438 19.5742C26.1877 19.6065 26.0625 19.7666 26.0938 19.9268C26.0937 20.6318 26.0312 21.3368 25.9062 22.0098C25.7813 22.3943 25.6875 22.7469 25.5938 23.0674L15.5312 52.7793C15.4376 53.1636 15.5316 53.3553 15.875 53.3555H21.75C22.0312 53.3878 22.2812 53.1958 22.3438 52.9072L24.7188 45.375H36.3438L38.9072 53.0039C38.9698 53.2278 39.1878 53.3876 39.4062 53.3555H45.9375C46.2501 53.3555 46.3436 53.1954 46.25 52.8428L34.8438 19.8301C34.8124 19.67 34.6872 19.5742 34.4375 19.5742H26.3438ZM30.4688 25.5029C30.6877 26.272 30.9064 27.1057 31.1562 28.0029C31.4064 28.9322 31.6875 29.8621 32 30.8555C32.3123 31.8492 32.5946 32.8111 32.9072 33.8047C33.1883 34.766 33.4687 35.6955 33.75 36.5605C34.0314 37.3941 34.2813 38.1962 34.4688 38.8691H26.5312C27 37.5231 27.4688 36.0162 27.9062 34.3818C28.4063 32.7794 28.875 31.1761 29.3438 29.6377C29.7812 28.2595 30.1252 26.8811 30.4062 25.5029H30.4688ZM53.125 17.0098C52.094 17.0098 51.0937 17.3947 50.3438 18.1318C49.5939 18.869 49.1876 19.8947 49.2188 20.9844C49.1876 22.0739 49.5627 23.1314 50.2812 23.9326C51.0312 24.6697 52.0315 25.0866 53.0625 25.0547C54.1251 25.1188 55.1875 24.7018 55.9062 23.9326C56.6562 23.1314 57.0311 22.074 57 20.9844C57.0312 19.9267 56.6563 18.9011 55.9688 18.1318C55.2815 17.3947 54.3439 17.0098 53.125 17.0098Z" fill="white"/>
</svg>
