<svg width="75" height="75" viewBox="0 0 75 75" fill="none" xmlns="http://www.w3.org/2000/svg">
<path d="M61.7188 0C69.0625 0 75 6.09004 75 13.6221V61.3779C75 68.9099 69.0625 75 61.7188 75H13.2812C5.93751 75 0 68.9099 0 61.3779V13.6221C0 6.09004 5.93751 2.18699e-06 13.2812 0H61.7188ZM55.0312 16.4424H48.6875C48.4688 16.4425 48.375 16.5707 48.375 16.7949V26.9229C48.0002 26.8908 47.6873 26.8914 47.4062 26.8594C47.125 26.8274 46.9062 26.8271 46.75 26.8271C43.6565 26.8272 41.0313 27.4356 38.8438 28.6855C36.7813 29.8394 35.0624 31.5709 33.875 33.6543C32.7187 35.7056 32.1248 38.0455 32.1562 40.417C32.1563 43.3335 32.7185 45.7696 33.875 47.7246C34.9999 49.6155 36.6251 51.1534 38.5938 52.083C40.6873 53.0765 42.9999 53.5576 45.3125 53.5254C46.9372 53.5254 48.5627 53.3654 50.125 53.0771C51.8752 52.7565 53.5939 52.2433 55.2188 51.5381C55.4377 51.4418 55.5312 51.25 55.5312 51.0254C55.5001 50.4809 55.4686 49.8398 55.4062 49.167C55.3748 48.4619 55.3438 47.821 55.3438 47.2441V16.667C55.3125 16.5388 55.1873 16.4103 55.0312 16.4424ZM26.8125 19.1992H20.7188C20.4378 19.1993 20.2813 19.327 20.2812 19.6152V52.6279C20.2812 52.9801 20.4065 53.1405 20.6875 53.1406H26.8125C27.0938 53.1406 27.25 52.9802 27.25 52.6279V19.6152C27.25 19.5833 27.2499 19.5515 27.2188 19.5195C27.1875 19.2952 27 19.1672 26.8125 19.1992ZM46.5 32.7891C46.8436 32.7891 47.1876 32.8206 47.5312 32.8525C47.8122 32.8845 48.0937 32.9484 48.375 33.0127V47.1152C48.0313 47.2435 47.6561 47.3074 47.25 47.2754C46.8439 47.3074 46.4063 47.3398 45.9375 47.3398C45.0625 47.3398 44.1875 47.2111 43.3438 46.9229C42.5315 46.6665 41.8124 46.2175 41.2188 45.6406C40.5937 44.9998 40.125 44.2306 39.8125 43.3652C39.4376 42.3079 39.2498 41.1861 39.2812 40.0645C39.2812 38.398 39.6249 37.019 40.3125 35.9932C41 34.9678 41.9066 34.167 42.9688 33.6221C44.0625 33.0452 45.2815 32.7891 46.5 32.7891Z" fill="white"/>
</svg>
