<svg width="75" height="75" viewBox="0 0 75 75" fill="none" xmlns="http://www.w3.org/2000/svg">
<path d="M61.7188 0C69.0625 0 75 6.09004 75 13.6221V61.3779C75 68.9099 69.0625 75 61.7188 75H13.2812C5.93751 75 0 68.9099 0 61.3779V13.6221C0 6.09004 5.93751 2.18699e-06 13.2812 0H61.7188ZM53.7812 27.0195C51.5626 27.0195 49.7188 27.3715 48.25 28.1406C46.9063 28.7817 45.75 29.8077 44.9688 31.0898C44.2812 32.2756 43.9063 33.5897 43.9062 34.9678C43.875 36.0896 44.1249 37.2115 44.625 38.2373C45.2187 39.3271 46.0313 40.2567 47 40.9619C48.3749 41.9234 49.8439 42.6926 51.4375 43.2695C52.9684 43.8783 53.9998 44.3588 54.5 44.7754C54.9998 45.192 55.25 45.609 55.25 46.0576C55.2499 46.6348 54.9063 47.1797 54.4062 47.4043C53.8438 47.6925 53.0001 47.8525 51.8125 47.8525C50.5627 47.8525 49.3124 47.6927 48.125 47.3721C46.7498 47.0518 45.4686 46.538 44.25 45.8008C44.1565 45.7369 44.0626 45.7056 43.9688 45.7695C43.8752 45.8336 43.8438 45.9617 43.8438 46.0576V51.6348C43.8126 51.8909 43.9687 52.1148 44.1875 52.2432C45.1874 52.7238 46.2812 53.0772 47.375 53.2695C48.7811 53.5581 50.1877 53.6855 51.625 53.6855C53.8749 53.6855 55.7498 53.333 57.2812 52.6602C58.6873 52.0832 59.9064 51.0898 60.7812 49.8076C61.5936 48.5578 62.0312 47.0514 62 45.5449C62.0312 44.3911 61.7814 43.2687 61.2812 42.2432C60.6876 41.1535 59.8435 40.2559 58.8125 39.583C57.3126 38.6215 55.6874 37.8201 54 37.2432C53.2501 36.9226 52.5 36.5701 51.7812 36.1855C51.3751 35.9612 51.0001 35.6726 50.7188 35.3203C50.5317 35.0638 50.4063 34.7758 50.4062 34.4873C50.4062 34.1991 50.5 33.8783 50.6562 33.6221C50.875 33.3015 51.2188 33.0768 51.625 32.9805C52.2187 32.8205 52.8751 32.7239 53.5 32.7559C54.6876 32.7559 55.8439 32.9163 57 33.1729C58.0626 33.3972 59.0625 33.7498 60 34.2627C60.1251 34.327 60.2814 34.327 60.5625 34.2627C60.6564 34.1987 60.7187 34.0704 60.7188 33.9424V28.7178C60.7187 28.5896 60.6874 28.4612 60.6562 28.333C60.5935 28.2049 60.4685 28.077 60.3438 28.0449C59.4999 27.6924 58.5934 27.4358 57.6562 27.3076C56.375 27.1153 55.0625 27.0195 53.7812 27.0195ZM26.875 19.0703C25.9375 19.0703 25 19.0705 24.0312 19.1025C23.0625 19.1346 22.1562 19.1349 21.3125 19.167C20.4688 19.199 19.6875 19.1984 18.9375 19.2305C18.2188 19.2625 17.7187 19.2627 17.1875 19.2627C16.9688 19.2627 16.875 19.3909 16.875 19.6152V52.5957C16.875 52.8843 17 53.0127 17.25 53.0127H23.3125C23.5313 52.9804 23.6875 52.7881 23.6562 52.5635V42.2754C24.25 42.2754 24.6875 42.2756 25 42.3076C25.3125 42.3396 25.8125 42.3398 26.5625 42.3398C29.125 42.3398 31.4688 42.0512 33.5938 41.25C35.625 40.4808 37.3749 39.1345 38.625 37.3398C39.8751 35.5451 40.5 33.2691 40.5 30.5127C40.5 29.0704 40.2501 27.6918 39.7812 26.3457C39.2815 24.9676 38.4998 23.7179 37.5 22.6924C36.3126 21.5065 34.8749 20.6093 33.3125 20.0645C31.5623 19.3914 29.4375 19.0703 26.875 19.0703ZM27.0938 25.3848C28.375 25.3527 29.6251 25.5446 30.7812 26.0254C31.6876 26.378 32.4374 27.0192 32.9688 27.8525C33.4685 28.7179 33.7187 29.7115 33.6875 30.7051C33.6875 32.1153 33.3751 33.2056 32.7188 34.0068C32.0315 34.808 31.1561 35.4165 30.1562 35.7051C29 36.0897 27.7812 36.2822 26.5625 36.2822H24.9062C24.5313 36.2822 24.125 36.2501 23.6875 36.2178V25.4482C23.9063 25.4162 24.3438 25.3849 24.9688 25.417C25.5625 25.3849 26.2813 25.3848 27.0938 25.3848Z" fill="white"/>
</svg>
