<svg width="75" height="75" viewBox="0 0 75 75" fill="none" xmlns="http://www.w3.org/2000/svg">
<g clip-path="url(#clip0_1500_75)">
<path d="M63.4906 13.6557C58.6282 11.4237 53.4967 9.83207 48.2247 8.92068C48.1768 8.91174 48.1273 8.91814 48.0833 8.93895C48.0392 8.95977 48.0029 8.99394 47.9794 9.03661C47.32 10.2094 46.5897 11.7391 46.0784 12.9413C40.3138 12.0782 34.5784 12.0782 28.9322 12.9413C28.4209 11.7122 27.6641 10.2094 27.0019 9.03661C26.9774 8.99491 26.9408 8.96158 26.8971 8.94095C26.8533 8.92032 26.8043 8.91337 26.7566 8.92099C21.484 9.83026 16.3522 11.4217 11.4903 13.6554C11.4487 13.6731 11.4137 13.7034 11.39 13.7419C1.66689 28.2682 -0.996862 42.4372 0.310012 56.4307C0.313708 56.4649 0.324241 56.4981 0.340989 56.5282C0.357736 56.5583 0.380358 56.5848 0.407512 56.606C6.82251 61.3172 13.0366 64.1772 19.1353 66.0729C19.1827 66.087 19.2334 66.0863 19.2804 66.0709C19.3274 66.0555 19.3686 66.0261 19.3984 65.9866C20.8409 64.0166 22.1269 61.9391 23.2297 59.7547C23.2449 59.7248 23.2535 59.692 23.2551 59.6586C23.2567 59.6251 23.2511 59.5916 23.2389 59.5604C23.2266 59.5292 23.2078 59.501 23.1838 59.4775C23.1599 59.4541 23.1312 59.436 23.0997 59.4244C21.0597 58.6507 19.1175 57.7072 17.2491 56.636C17.215 56.616 17.1864 56.5879 17.1657 56.5542C17.1451 56.5205 17.1331 56.4822 17.1307 56.4428C17.1284 56.4034 17.1358 56.3639 17.1523 56.328C17.1688 56.2921 17.1939 56.2608 17.2253 56.2369C17.6185 55.9422 18.0119 55.636 18.3872 55.3263C18.4206 55.2988 18.4609 55.2812 18.5038 55.2754C18.5466 55.2696 18.5902 55.2758 18.6297 55.2935C30.9041 60.8975 44.1922 60.8975 56.3216 55.2935C56.3611 55.2747 56.4051 55.2675 56.4485 55.2728C56.492 55.278 56.533 55.2955 56.5669 55.3232C56.9425 55.6326 57.3356 55.9422 57.7319 56.2369C57.7634 56.2606 57.7887 56.2917 57.8054 56.3274C57.8221 56.3631 57.8298 56.4024 57.8277 56.4418C57.8257 56.4812 57.814 56.5195 57.7937 56.5533C57.7734 56.5871 57.7451 56.6154 57.7113 56.6357C55.8421 57.7274 53.8841 58.6592 51.8581 59.4213C51.8267 59.4333 51.7981 59.4519 51.7743 59.4757C51.7505 59.4995 51.732 59.5281 51.72 59.5596C51.708 59.591 51.7027 59.6247 51.7046 59.6583C51.7065 59.692 51.7155 59.7248 51.7309 59.7547C52.8572 61.936 54.1431 64.0135 55.5591 65.9835C55.588 66.0241 55.629 66.0546 55.6762 66.0707C55.7234 66.0867 55.7745 66.0875 55.8222 66.0729C61.9503 64.1769 68.1644 61.3169 74.5794 56.606C74.607 56.5858 74.63 56.56 74.6469 56.5303C74.6638 56.5005 74.6741 56.4675 74.6772 56.4335C76.2409 40.2554 72.0578 26.2026 63.5881 13.7447C63.5673 13.7043 63.5328 13.6729 63.4906 13.6557ZM25.0625 47.9101C21.3672 47.9101 18.3222 44.5172 18.3222 40.3507C18.3222 36.1844 21.3081 32.7916 25.0628 32.7916C28.8466 32.7916 31.8619 36.2141 31.8028 40.351C31.8028 44.5172 28.8169 47.9101 25.0625 47.9101ZM49.9838 47.9101C46.2884 47.9101 43.2434 44.5172 43.2434 40.3507C43.2434 36.1844 46.2291 32.7916 49.9838 32.7916C53.7675 32.7916 56.7828 36.2141 56.7238 40.351C56.7238 44.5172 53.7675 47.9101 49.9838 47.9101Z" fill="white"/>
</g>
<defs>
<clipPath id="clip0_1500_75">
<rect width="75" height="75" fill="white"/>
</clipPath>
</defs>
</svg>
