<svg width="75" height="75" viewBox="0 0 75 75" fill="none" xmlns="http://www.w3.org/2000/svg">
<g clip-path="url(#clip0_1497_70)">
<path d="M60.2344 21.7969L43.8281 5.39062C43.3594 4.92187 42.8906 4.6875 42.1875 4.6875H18.75C16.1719 4.6875 14.0625 6.79687 14.0625 9.375V65.625C14.0625 68.2031 16.1719 70.3125 18.75 70.3125H56.25C58.8281 70.3125 60.9375 68.2031 60.9375 65.625V23.4375C60.9375 22.7344 60.7031 22.2656 60.2344 21.7969ZM42.1875 10.3125L55.3125 23.4375H42.1875V10.3125ZM56.25 65.625H18.75V9.375H37.5V23.4375C37.5 26.0156 39.6094 28.125 42.1875 28.125H56.25V65.625Z" fill="white"/>
<path d="M23.4375 51.5625H51.5625V56.25H23.4375V51.5625Z" fill="white"/>
<path d="M23.4375 37.5H51.5625V42.1875H23.4375V37.5Z" fill="white"/>
</g>
<defs>
<clipPath id="clip0_1497_70">
<rect width="75" height="75" fill="white"/>
</clipPath>
</defs>
</svg>
