<svg width="75" height="75" viewBox="0 0 75 75" fill="none" xmlns="http://www.w3.org/2000/svg">
<g clip-path="url(#clip0_1500_77)">
<path d="M69 0.75H5.98359C3.09609 0.75 0.75 3.12891 0.75 6.04922V68.9508C0.75 71.8711 3.09609 74.25 5.98359 74.25H69C71.8875 74.25 74.25 71.8711 74.25 68.9508V6.04922C74.25 3.12891 71.8875 0.75 69 0.75ZM22.9641 63.75H12.0703V28.6734H22.9805V63.75H22.9641ZM17.5172 23.8828C14.0227 23.8828 11.2008 21.0445 11.2008 17.5664C11.2008 14.0883 14.0227 11.25 17.5172 11.25C20.9953 11.25 23.8336 14.0883 23.8336 17.5664C23.8336 21.0609 21.0117 23.8828 17.5172 23.8828ZM63.7992 63.75H52.9055V46.6875C52.9055 42.6188 52.8234 37.3852 47.2453 37.3852C41.5688 37.3852 40.6992 41.8148 40.6992 46.3922V63.75H29.8055V28.6734H40.2563V33.4641H40.4039C41.8641 30.7078 45.4242 27.8039 50.7234 27.8039C61.7484 27.8039 63.7992 35.0719 63.7992 44.5219V63.75Z" fill="white"/>
</g>
<defs>
<clipPath id="clip0_1500_77">
<rect width="75" height="75" fill="white"/>
</clipPath>
</defs>
</svg>
