<?xml version="1.0" encoding="UTF-8" standalone="no"?>
<!DOCTYPE svg PUBLIC "-//W3C//DTD SVG 1.1//EN" "http://www.w3.org/Graphics/SVG/1.1/DTD/svg11.dtd">
<svg width="100%" height="100%" viewBox="0 0 170 60" version="1.1" xmlns="http://www.w3.org/2000/svg" xmlns:xlink="http://www.w3.org/1999/xlink" xml:space="preserve" xmlns:serif="http://www.serif.com/" style="fill-rule:evenodd;clip-rule:evenodd;stroke-linecap:round;stroke-miterlimit:50;">
    <g transform="matrix(1,0,0,1,38.0856,-40.0715)">
        <g>
            <g>
                <g>
                    <g transform="matrix(1,0,0,1,810.629,-1697.63)">
                        <path d="M-681.645,1748.25C-684.716,1761.49 -687.788,1774.74 -690.86,1787.99C-691.849,1792.25 -697.704,1795.8 -703.79,1795.8L-784.695,1795.8C-790.81,1795.8 -794.708,1792.25 -793.38,1787.99C-789.253,1774.74 -785.126,1761.49 -780.999,1748.25C-779.735,1744.19 -773.876,1740.81 -768.037,1740.81L-690.568,1740.81C-684.695,1740.81 -680.706,1744.2 -681.645,1748.25Z" style="fill:none;stroke:white;stroke-width:5px;"/>
                    </g>
                    <g transform="matrix(0.807766,0.807766,-0.821077,0.821077,2171.87,-702.652)">
                        <path d="M-797.881,1703.62C-803.234,1717.59 -808.587,1731.56 -813.94,1745.53C-815.319,1750.81 -820.05,1755.47 -824.335,1755.76C-830.274,1757.26 -843.14,1760.51 -858.849,1764.4" style="fill:none;stroke:white;stroke-width:3.53px;"/>
                    </g>
                    <g transform="matrix(0.807766,0.807766,-0.821077,0.821077,2171.41,-639.622)">
                        <path d="M-850.42,1701.35C-840.187,1702.12 -829.309,1702.9 -818.756,1703.6M-874.371,1758C-873.251,1751.68 -870.582,1736.58 -867.419,1718.15" style="fill:none;stroke:white;stroke-width:3.53px;"/>
                    </g>
                </g>
            </g>
        </g>
    </g>
    <g transform="matrix(1,0,0,1,-15.4312,-16.3481)">
        <g transform="matrix(0.713026,0,0,1,42.718,-21.5934)">
            <path d="M38.13,54.434C38.13,55.374 37.06,56.137 35.741,56.137L9.615,56.137C8.297,56.137 7.226,55.374 7.226,54.434C7.226,53.494 8.297,52.731 9.615,52.731L35.741,52.731C37.06,52.731 38.13,53.494 38.13,54.434Z" style="fill:rgb(235,235,235);"/>
        </g>
        <g transform="matrix(1.0501,0,0,1,24.0562,-8.93905)">
            <path d="M38.13,54.434C38.13,55.374 37.403,56.137 36.508,56.137L8.848,56.137C7.953,56.137 7.226,55.374 7.226,54.434C7.226,53.494 7.953,52.731 8.848,52.731L36.508,52.731C37.403,52.731 38.13,53.494 38.13,54.434Z" style="fill:rgb(235,235,235);"/>
        </g>
        <g transform="matrix(1.46345,0,0,1,4.85579,3.71527)">
            <path d="M38.13,54.434C38.13,55.374 37.608,56.137 36.966,56.137L8.39,56.137C7.748,56.137 7.226,55.374 7.226,54.434C7.226,53.494 7.748,52.731 8.39,52.731L36.966,52.731C37.608,52.731 38.13,53.494 38.13,54.434Z" style="fill:rgb(235,235,235);"/>
        </g>
    </g>
</svg>
