<svg width="75" height="75" viewBox="0 0 75 75" fill="none" xmlns="http://www.w3.org/2000/svg">
<g clip-path="url(#clip0_1446_342)">
<path fill-rule="evenodd" clip-rule="evenodd" d="M52.7373 7.00012H40.457V25.5367C38.6237 25.0672 37.1066 24.9104 35.1151 24.9104C22.2817 24.9104 14 32.9577 14 45.3571C14 58.2263 21.8075 64.927 36.8062 64.9426C41.8165 64.9426 46.4471 64.4745 52.7373 63.2847V7.00012ZM36.7465 35.0536C38.2639 35.0536 39.4491 35.2101 40.8874 35.6798V55.2043C39.1331 55.4391 38.0267 55.5157 36.6677 55.5157C30.3775 55.5157 26.9478 51.9462 26.9478 45.4818C26.9478 38.8422 30.5354 35.0536 36.7465 35.0536Z" fill="white"/>
<path d="M72.8204 54.6024V26.4218H60.5558V50.4065C60.5558 60.9899 60.0026 65.0136 58.2485 68.4876C56.5731 71.8849 53.9496 74.111 48.5286 76.6303L59.9238 82.0001C65.3448 79.3059 67.9682 76.8666 69.9597 72.9982C72.0934 68.9744 72.8204 64.3074 72.8204 54.6024Z" fill="white"/>
<path d="M71.5985 7.00012H59.3183V19.4779H71.5985V7.00012Z" fill="white"/>
</g>
<defs>
<clipPath id="clip0_1446_342">
<rect width="75" height="75" fill="white"/>
</clipPath>
</defs>
</svg>
