<svg width="75" height="75" viewBox="0 0 75 75" fill="none" xmlns="http://www.w3.org/2000/svg">
<g clip-path="url(#clip0_1447_787)">
<path d="M42.2713 0.308789C21.7338 -2.32559 2.94322 12.1869 0.308844 32.7275C-2.32553 53.265 12.1838 72.0525 32.7245 74.69C53.2651 77.3244 72.0588 62.8119 74.687 42.2713C77.3245 21.7338 62.8151 2.94629 42.2713 0.308789ZM49.9932 23.6994C49.2973 23.7086 48.6325 23.9888 48.1401 24.4807L34.2245 38.3963L33.2651 37.4369L31.2557 35.4275C44.9713 21.7525 47.4432 21.6213 49.9932 23.6994ZM34.7963 38.89L48.6713 25.015C48.8532 24.8243 49.0721 24.6727 49.3145 24.5694C49.557 24.4662 49.818 24.4135 50.0815 24.4146C50.3451 24.4157 50.6056 24.4705 50.8472 24.5757C51.0888 24.6809 51.3064 24.8343 51.4867 25.0266C51.667 25.2188 51.8062 25.4457 51.8958 25.6936C51.9853 25.9414 52.0234 26.205 52.0076 26.468C51.9918 26.7311 51.9226 26.9882 51.804 27.2235C51.6855 27.4589 51.5202 27.6676 51.3182 27.8369L36.6338 40.7275L34.7963 38.89ZM35.8276 41.0588L32.3901 41.8025C32.349 41.8118 32.3061 41.807 32.2681 41.7888C32.2301 41.7707 32.1993 41.7403 32.1807 41.7025C32.1598 41.6665 32.1515 41.6244 32.1572 41.5831C32.1629 41.5418 32.1821 41.5035 32.212 41.4744L34.2276 39.4588L35.8276 41.0588ZM27.0682 39.6244L30.7307 35.9619L33.4776 38.7057L27.2932 40.0369C27.2417 40.0503 27.1871 40.0455 27.1387 40.0233C27.0903 40.0011 27.0511 39.9628 27.0276 39.915C26.9985 39.8697 26.9866 39.8155 26.994 39.7622C27.0015 39.7089 27.0278 39.66 27.0682 39.6244ZM15.6745 58.5557C15.6432 58.5529 15.6128 58.544 15.5851 58.5295C15.5573 58.5149 15.5327 58.495 15.5126 58.4709C15.4926 58.4468 15.4775 58.4189 15.4683 58.389C15.459 58.359 15.4558 58.3275 15.4588 58.2963C15.4648 58.242 15.489 58.1913 15.5276 58.1525H15.5338L18.4901 55.1963L22.3088 59.015L15.6745 58.5557ZM23.2526 54.6307C23.1109 54.7039 22.9979 54.8225 22.9316 54.9675C22.8653 55.1126 22.8496 55.2756 22.887 55.4307L23.5213 58.1338C23.5418 58.2171 23.5343 58.3048 23.5 58.3834C23.4657 58.462 23.4065 58.5271 23.3315 58.5687C23.2564 58.6103 23.1698 58.6261 23.085 58.6135C23.0001 58.601 22.9218 58.5609 22.862 58.4994H22.8526L19.9338 55.5807L19.0151 54.6588L30.7713 42.915L36.4588 41.6869L39.1901 44.4182C35.2682 47.8619 29.9057 51.2963 23.2526 54.6307ZM39.7495 43.9182H39.7432L37.1213 41.2963L51.8057 28.4057C51.9415 28.285 52.066 28.1522 52.1776 28.0088C51.7151 32.2119 45.837 38.1494 39.7495 43.9182ZM51.1776 23.7307L51.1682 23.7244C50.135 22.6863 49.5416 21.2899 49.5113 19.8256C49.4811 18.3613 50.0163 16.9416 51.0057 15.8616C51.9951 14.7817 53.3626 14.1246 54.824 14.0268C56.2854 13.9291 57.7282 14.3983 58.8526 15.3369L53.8213 20.3775C53.7865 20.4121 53.7588 20.4532 53.7399 20.4986C53.721 20.5439 53.7113 20.5925 53.7113 20.6416C53.7113 20.6907 53.721 20.7393 53.7399 20.7846C53.7588 20.83 53.7865 20.8711 53.8213 20.9057L57.7182 24.8025C56.6531 25.3313 55.4488 25.5122 54.2753 25.3199C53.1018 25.1276 52.0183 24.5717 51.1776 23.7307ZM59.2338 23.7307C58.9754 23.9859 58.6916 24.2141 58.387 24.4119L54.612 20.64L59.4026 15.8494C61.4682 18.0994 61.3932 21.5744 59.2338 23.7307ZM58.9213 18.9057C58.8462 18.9601 58.7899 19.0366 58.7602 19.1245C58.7306 19.2125 58.729 19.3074 58.7557 19.3963C58.867 19.6216 58.9106 19.8744 58.8812 20.1239C58.8518 20.3735 58.7507 20.6092 58.5901 20.8025C58.5543 20.8476 58.5278 20.8994 58.512 20.9547C58.4962 21.0101 58.4915 21.0681 58.4982 21.1253C58.5049 21.1825 58.5228 21.2378 58.5509 21.288C58.579 21.3383 58.6167 21.3825 58.662 21.4182C58.737 21.477 58.8291 21.5099 58.9245 21.5119C58.9877 21.5114 59.0501 21.4971 59.1072 21.4701C59.1644 21.4431 59.2151 21.4041 59.2557 21.3557C59.5241 21.0332 59.6928 20.6395 59.7411 20.2227C59.7894 19.8059 59.7152 19.3841 59.5276 19.0088C59.4949 18.9618 59.4531 18.9218 59.4048 18.8912C59.3565 18.8605 59.3025 18.8398 59.2461 18.8302C59.1897 18.8206 59.1319 18.8223 59.0761 18.8353C59.0204 18.8482 58.9678 18.8722 58.9213 18.9057Z" fill="white"/>
</g>
<defs>
<clipPath id="clip0_1447_787">
<rect width="75" height="75" fill="white"/>
</clipPath>
</defs>
</svg>
