<svg width="75" height="75" viewBox="0 0 75 75" fill="none" xmlns="http://www.w3.org/2000/svg">
<path d="M8.17207 0V2.77094H20.1718V0H8.17207ZM23.8643 0V2.77094H35.8699V0H23.8643ZM39.3549 0V2.77094H51.3605V0H39.3549ZM54.7786 0V2.77094H66.7843V0H54.7786ZM7.64738 5.92031C7.26336 5.92007 6.88306 5.99552 6.52822 6.14237C6.17338 6.28921 5.85097 6.50456 5.57943 6.77611C5.30789 7.04765 5.09253 7.37006 4.94569 7.7249C4.79884 8.07974 4.72339 8.46004 4.72363 8.84406C4.72363 10.4597 6.03145 11.7738 7.64738 11.7738H67.3518C68.9677 11.7738 70.2755 10.46 70.2755 8.84406C70.2758 8.46004 70.2003 8.07974 70.0535 7.7249C69.9066 7.37006 69.6913 7.04765 69.4197 6.77611C69.1482 6.50456 68.8258 6.28921 68.4709 6.14237C68.1161 5.99552 67.7358 5.92007 67.3518 5.92031H7.64738ZM8.17238 14.8194V75H20.1714V14.8194H8.17238ZM23.8643 14.8194V64.1969H35.8699V14.8194H23.8643ZM39.3549 14.8194V47.7844H51.3852V14.8194H39.3549ZM54.7786 14.8194V35.1134H66.7843V14.8194H54.7786Z" fill="white"/>
</svg>
