<svg width="75" height="75" viewBox="0 0 75 75" fill="none" xmlns="http://www.w3.org/2000/svg">
<path d="M42.5146 0C43.4698 0 44.2818 0.36148 45.0459 0.767578C45.7385 1.10603 46.1215 1.82798 46.3125 2.50488C46.6467 3.74564 46.8379 5.00896 47.1006 6.31738C52.4735 7.76143 57.1777 10.3566 61.2852 14.0117C62.5747 13.583 63.8883 13.1542 65.2256 12.748C65.8466 12.5675 66.4676 12.6357 67.1123 12.8613C68.2586 13.2675 68.9516 14.0571 69.4531 15.0273C70.1456 16.3132 71.0292 17.4865 71.7217 18.7725C72.3426 19.9682 73.25 21.0062 73.7754 22.2471C74.0381 22.8562 74.7302 23.2625 74.7305 24.0293C75.3514 24.977 74.7538 25.8126 74.3955 26.6475C74.3 26.873 74.1807 27.1666 73.9658 27.2568C73.1064 27.6179 72.6763 28.4295 71.96 28.9258C71.6257 29.1514 71.2678 29.4002 70.8857 29.6709C71.435 32.2655 71.9121 34.8602 71.9121 37.5225C71.9121 40.1625 71.4828 42.7123 70.8857 45.2393C71.8171 46.0516 72.6766 46.8414 73.584 47.5859C74.5152 48.3529 75.0646 49.3003 74.9453 50.293C74.8737 50.8345 74.7304 51.4218 74.4199 51.873C73.5603 53.1816 72.7479 54.5351 71.9121 55.8662C70.8614 57.5132 70.0019 59.2957 68.7842 60.8525C68.5692 61.7097 67.7097 61.778 67.0889 62.0938C66.4202 62.4321 65.751 62.3417 65.0107 62.1387C63.9123 61.8453 62.861 61.3268 61.7148 61.1914C61.5957 61.1685 61.5001 61.0112 61.3809 60.8984C57.2497 64.5761 52.5691 67.1935 47.1006 68.6602C46.8379 69.8784 46.599 71.142 46.3125 72.3828C46.0259 73.6012 45.166 74.3685 43.9482 74.7295C43.4945 74.8649 43.0165 75 42.4912 75C39.1479 74.9549 35.8043 74.9549 32.4609 75C31.5058 74.9999 30.6939 74.6385 29.9297 74.2324C29.2374 73.8939 28.8308 73.1719 28.6875 72.4951C28.4248 71.164 28.1625 69.9227 27.876 68.6143C22.5269 67.1928 17.8223 64.576 13.7148 60.9209C12.4253 61.3495 11.1117 61.7784 9.77441 62.1846C9.15352 62.3651 8.53247 62.2969 7.8877 62.0713C6.74151 61.6652 6.04934 60.8754 5.54785 59.9053C4.85533 58.6192 3.97085 57.4462 3.27832 56.1602C2.65741 54.9643 1.74999 53.9256 1.22461 52.6846C0.961767 52.0757 0.269531 51.6693 0.269531 50.9023C-0.351146 49.9548 0.246302 49.1198 0.604492 48.2852C0.699997 48.0596 0.819318 47.766 1.03418 47.6758C1.89365 47.3147 2.32378 46.5032 3.04004 46.0068C3.37432 45.7811 3.73223 45.5324 4.11426 45.2617C3.56504 42.6671 3.08794 40.0725 3.08789 37.4102C3.08789 34.7704 3.5889 32.2204 4.11426 29.6934C3.18293 28.8811 2.32346 28.0912 1.41602 27.3467C0.484663 26.5794 -0.0647265 25.6314 0.0546875 24.6387C0.12635 24.0973 0.293562 23.5107 0.580078 23.0596C1.46367 21.7283 2.27603 20.3293 3.13574 18.9756C3.82824 17.8926 4.4253 16.7645 5.18945 15.7041C5.5954 15.1626 5.83427 14.5308 6.24023 13.9668C7.02825 12.9064 8.60403 12.3871 9.89355 12.748C11.0398 13.0639 12.115 13.5381 13.2852 13.7412C13.4044 13.764 13.4999 13.9215 13.6191 14.0342C17.7506 10.4016 22.4555 7.80665 27.8525 6.29492C28.0674 5.68581 28.1154 5.03107 28.3779 4.39941C28.5689 3.92567 28.5207 3.33908 28.6162 2.82031C28.8788 1.46655 29.7626 0.67664 31.0283 0.270508C31.482 0.135132 31.9362 0 32.4854 0C35.8284 0.0451196 39.1716 0.0451193 42.5146 0ZM24.0312 26.4668C23.3864 26.0607 22.7177 26.1963 22.1445 26.1963C21.8103 26.4894 21.5233 26.7373 21.2607 26.9629C21.2368 27.6848 20.6879 28.249 20.7832 28.9482C19.9473 30.7082 19.5889 32.6041 18.8965 34.4092C18.5383 35.3341 18.3236 36.282 18.0371 37.2295C17.7743 38.177 17.2012 39.0345 17.2012 40.0498C16.2938 41.9676 15.8405 44.0212 15.1719 46.0293C15.0047 46.5255 14.9089 46.999 15.2432 47.4727C15.3382 47.6074 15.2915 47.8094 15.291 47.7891C15.673 48.1725 15.9595 48.4432 16.1982 48.7139H17.6309C17.9651 48.3078 18.2999 47.9246 18.6104 47.541C18.5386 46.2549 18.8254 45.3969 19.4463 44.0205H26.4668C26.6578 44.7425 26.7539 45.4423 27.0166 46.0967C27.1359 46.3674 27.2548 46.6385 27.207 46.9092C27.1354 47.7437 27.4223 48.398 28.4248 48.7139C28.6637 48.7365 29.0227 48.7363 29.4287 48.7363C29.9061 48.4882 30.4554 48.3303 30.4795 47.7891C30.5273 46.9768 30.6463 46.1413 30.4551 45.374C30.1207 44.0656 29.5242 42.8018 29.166 41.4932C28.9272 40.6586 28.4011 39.8691 28.4248 38.9668C27.6607 37.1845 27.1837 35.3117 26.5391 33.5068C26.0136 32.0176 25.6307 30.4832 25.0576 29.0166C24.7472 28.2044 24.6757 27.3012 24.1025 26.5791C24.0564 26.5137 24.0326 26.4694 24.0312 26.4668ZM34.9688 26.1729C34.706 26.4436 34.4433 26.7146 34.1328 26.9854V47.9463C34.4433 48.1945 34.73 48.4656 35.0166 48.7363C35.6613 48.6913 36.4015 48.872 36.9268 48.376C37.1177 48.1504 37.2848 47.9242 37.5234 47.6084V40.6133C39.2668 40.6133 40.9871 40.5465 42.6826 40.6367C43.7092 40.6817 44.5447 40.3878 45.3564 39.9141C45.7385 39.6885 46.073 39.35 46.4072 39.0342C47.2909 38.2219 47.7213 37.2289 47.7451 36.0557V30.5283C47.7451 30.2576 47.6733 29.9641 47.6016 29.6934C47.339 28.7232 46.79 28.0008 46.0498 27.3691C45.1901 26.6245 44.1862 26.1729 42.9922 26.1729H34.9688ZM52.3535 26.1963C51.9477 26.5345 51.6607 26.7829 51.3027 27.0986C51.3743 27.6399 51.4703 28.2489 51.542 28.7676C52.1151 29.0383 52.5686 29.2648 52.9746 29.4678V45.5322C52.7359 45.5773 52.4734 45.5328 52.3779 45.6455C52.0436 45.9615 51.4699 46.0515 51.3506 46.5703V47.9238C51.6371 48.1946 51.9244 48.4656 52.2109 48.7363H57.1777C57.4643 48.4656 57.7506 48.1945 58.0371 47.9463V46.5928C57.679 45.9613 57.1302 45.5776 56.4141 45.5098V29.4902C56.9393 29.242 57.3927 29.0158 57.918 28.7451C57.9895 28.1587 58.0372 27.5496 58.085 27.1211C57.7031 26.715 57.4405 26.4219 57.2256 26.1963H52.3535ZM22.7891 33.3477C22.9323 33.483 23.1473 33.6187 23.1475 33.7314C23.1713 34.7017 23.7689 35.5369 23.96 36.4619C24.1033 37.0935 24.4844 37.7025 24.5801 38.334C24.6756 39.1464 25.2489 39.7561 25.2012 40.5684C23.7922 40.6135 22.3116 40.6355 20.8311 40.6807C20.7833 40.6808 20.7115 40.7712 20.5684 40.8838C20.5924 39.4852 21.4278 38.3572 21.5234 37.0713C22.24 35.9432 22.3115 34.6112 22.7891 33.3477ZM42.8496 29.333C43.6852 29.3556 44.4017 30.1672 44.4258 31.0244V36.1914C44.2587 36.4395 44.115 36.6884 43.9238 36.9141C43.5896 37.2748 43.1601 37.4776 42.6113 37.4551C40.9396 37.4326 39.2672 37.4551 37.5479 37.4551V29.333C39.291 29.333 41.0824 29.3105 42.8496 29.333Z" fill="white"/>
</svg>
