<svg width="75" height="75" viewBox="0 0 75 75" fill="none" xmlns="http://www.w3.org/2000/svg">
<path d="M4.00595 0.0132158C4.00595 0.303961 3.99257 0.502198 4.00595 0.700433C4.51439 6.19818 5.02283 11.6959 5.5179 17.2069C6.21366 25.0041 6.89604 32.8014 7.59181 40.5855C8.38123 49.3343 9.18404 58.0699 9.94671 66.8186C10.0002 67.453 10.2277 67.7305 10.8298 67.8891C19.3931 70.2151 27.9296 72.5543 36.4928 74.867C37.0681 75.0256 37.7639 75.052 38.3393 74.8935C46.9293 72.5675 55.5058 70.2019 64.0959 67.8628C64.7516 67.6776 64.9791 67.3869 65.0325 66.7261C65.3001 63.4223 65.6213 60.1051 65.9157 56.8011C66.4107 51.3299 66.8923 45.8585 67.3874 40.3873C67.9627 33.9644 68.5515 27.5548 69.1268 21.1319C69.555 16.3479 70.0099 11.577 70.4381 6.79288C70.6387 4.5462 70.8127 2.29954 71 0H4.00595V0.0132158ZM58.0749 19.0968C57.6333 23.9336 57.1918 28.7839 56.7502 33.6208C56.2418 39.1846 55.7333 44.7484 55.2249 50.299C55.0777 51.8981 54.8636 53.4973 54.8235 55.1095C54.7967 55.9685 54.4221 56.1933 53.6995 56.3915C48.5349 57.7659 43.3835 59.18 38.2322 60.5809C38.0047 60.6469 37.7906 60.7263 37.5633 60.7923C37.483 60.7526 37.4027 60.7263 37.309 60.6865C31.7964 59.2064 26.2837 57.713 20.7712 56.2064C20.5438 56.1404 20.2494 55.7835 20.2226 55.5324C19.8346 51.4091 19.4867 47.2859 19.1121 43.0833H27.5281C27.6753 44.7353 27.8359 46.4136 27.9697 48.1053C28.09 49.6646 28.0768 49.6646 29.5619 50.0611C32.2245 50.7615 34.9005 51.4488 37.5633 52.136L37.5365 52.0699C40.4534 51.3034 43.3701 50.5501 46.287 49.7308C46.5546 49.6515 46.8624 49.2285 46.9025 48.9378C47.0764 47.6691 47.1701 46.3871 47.2771 45.1185C47.4511 43.07 47.625 41.0216 47.8124 38.8806H37.5365L37.5633 38.8278C37.4962 38.8278 37.4161 38.8278 37.3491 38.8278H18.724C18.4698 36.0921 18.229 33.3829 17.9747 30.5944H37.3625C37.4294 30.5944 37.5096 30.5944 37.5765 30.5944L37.5499 30.5415H48.5616C48.8159 27.7001 49.07 24.9249 49.3243 22.0966H37.5365L37.5633 22.0438C37.4962 22.0438 37.4161 22.0438 37.3491 22.0438C30.7528 22.057 24.1564 22.057 17.56 22.0703C17.4663 22.0703 17.3727 22.0306 17.1987 21.9778C16.9578 19.2818 16.7037 16.5858 16.4628 13.8104H37.3491C37.4161 13.8104 37.4962 13.8104 37.5633 13.8104L37.5365 13.7575H58.5164C58.3693 15.6078 58.2221 17.3523 58.0749 19.0968Z" fill="white"/>
</svg>
