<svg width="75" height="75" viewBox="0 0 75 75" fill="none" xmlns="http://www.w3.org/2000/svg">
<path d="M0 0C25.0169 0 49.9831 0 75 0C75 25.0169 75 50.0338 75 75C50.0338 75 25.0169 75 0 75C0 49.9325 0 24.9662 0 0ZM67.0999 39.7029C65.5806 36.9683 63.5044 35.0945 60.5165 34.4362C58.3896 33.9297 56.2626 33.9297 54.1358 34.3855C47.2485 35.8035 44.3112 44.1087 48.7677 49.6286C50.3376 51.553 52.4139 52.7178 54.5915 53.7306C56.5159 54.6421 58.4909 55.503 60.4152 56.4652C61.7319 57.1235 62.289 58.339 62.1371 59.8075C61.9851 61.2761 60.9722 62.0864 59.7062 62.5422C56.8704 63.555 53.5786 62.6435 51.6542 60.2634C51.2491 59.7569 50.844 59.1999 50.4389 58.6427C48.5145 59.7569 46.6407 60.8204 44.767 61.9345C45.9317 64.2134 47.5524 66.0365 49.7805 67.2519C53.5786 69.3281 57.5794 69.632 61.6813 68.6191C64.3653 67.9609 66.6441 66.5935 68.0621 64.1121C70.6955 59.4024 69.1763 53.528 64.5173 50.6415C62.4409 49.3754 60.1114 48.5145 57.9339 47.4004C56.8704 46.8434 55.7563 46.3369 54.8448 45.628C53.2241 44.3112 53.528 41.6779 55.3511 40.6651C57.1235 39.6523 59.605 40.26 60.9723 42.0324C61.2761 42.3869 61.4788 42.792 61.7826 43.1971C63.5044 42.0324 65.2769 40.8676 67.0999 39.7029ZM19.7501 62.6941C20.763 64.8718 22.2316 66.5935 24.3079 67.7076C26.9919 69.1762 29.9291 69.4294 32.917 68.9736C35.601 68.5685 37.8291 67.3531 39.2977 64.9224C40.5131 62.8966 40.8676 60.6685 40.8676 58.2882C40.8676 50.5907 40.8676 42.8934 40.8676 35.1958C40.8676 34.9933 40.8676 34.74 40.8676 34.4869C38.4875 34.4869 36.2086 34.4869 33.8285 34.4869C33.8285 34.7906 33.8285 35.0439 33.8285 35.3478C33.8285 42.944 33.8285 50.4895 33.8285 58.0858C33.8285 58.7948 33.7779 59.5544 33.6766 60.2634C33.474 61.4281 32.8663 62.289 31.7015 62.6435C29.524 63.3019 27.7515 62.6435 26.4855 60.7697C26.1816 60.2634 25.8778 59.7569 25.5233 59.2505C23.5483 60.4152 21.6745 61.5294 19.7501 62.6941Z" fill="white"/>
</svg>
