<svg width="75" height="75" viewBox="0 0 75 75" fill="none" xmlns="http://www.w3.org/2000/svg">
<mask id="mask0_1446_783" style="mask-type:luminance" maskUnits="userSpaceOnUse" x="0" y="0" width="75" height="75">
<path d="M75 0H0V75H75V0Z" fill="white"/>
</mask>
<g mask="url(#mask0_1446_783)">
<path d="M9.875 12.25V62.8749C3.75 56.1249 0 47.2499 0 37.4999C0 27.7499 3.75 18.8749 9.875 12.25Z" fill="white"/>
<path d="M13.875 17.75L35.5 61.125H13.875V17.75Z" fill="white"/>
<path d="M37.5 56.2502L16.25 13.8752H58.75L37.5 56.2502Z" fill="white"/>
<path d="M37.5 0C47.25 0 56.125 3.75 62.75 9.875H12.25C18.875 3.75 27.75 0 37.5 0Z" fill="white"/>
<path d="M61.125 61.125H39.5L61.125 17.75V61.125Z" fill="white"/>
<path d="M62.75 65.125C56.125 71.25 47.25 75 37.5 75C27.75 75 18.875 71.25 12.25 65.125H62.75Z" fill="white"/>
<path d="M65.125 62.7501V12.25C71.25 18.8749 75 27.7499 75 37.4999C75 47.2499 71.25 56.1251 65.125 62.7501Z" fill="white"/>
<path d="M13.875 17.7502L35.5 61.1252H13.875V17.7502Z" fill="white"/>
<path d="M37.5 56.2502L16.25 13.8752H58.75L37.5 56.2502Z" fill="white"/>
<path d="M39.5 61.1252L61.125 17.7502V61.1252H39.5Z" fill="white"/>
<path d="M16.25 13.8752H58.75L37.5 56.2502L16.25 13.8752Z" fill="white"/>
</g>
</svg>
