<svg width="75" height="75" viewBox="0 0 75 75" fill="none" xmlns="http://www.w3.org/2000/svg">
<g clip-path="url(#clip0_1446_373)">
<path d="M66.1005 25.4988C66.1653 22.5558 64.2705 19.5344 62.1333 17.0745C61.9829 16.9029 61.8303 16.7334 61.6799 16.566C61.0824 15.9092 60.4745 15.299 59.8958 14.7524C57.9822 12.9408 56.3714 11.7904 56.3714 11.7904C45.556 3.65218 35.3756 3.71786 29.1082 4.98912C28.9285 5.02726 28.751 5.06328 28.5776 5.10141C28.3164 5.16074 28.0636 5.22007 27.8192 5.27939C27.7377 5.30058 27.6563 5.32177 27.5769 5.34084C27.4954 5.36202 27.416 5.38321 27.3387 5.4044C26.6347 5.59085 25.9996 5.78578 25.4459 5.97435C25.331 6.0146 25.2203 6.05274 25.1117 6.09088C25.0448 6.11418 24.9801 6.13749 24.9153 6.1608C24.8171 6.19682 24.7231 6.23283 24.6312 6.26674C24.581 6.2858 24.5309 6.30487 24.4829 6.32394C24.4682 6.32818 24.4557 6.33242 24.4411 6.33877C24.3617 6.36844 24.2865 6.3981 24.2134 6.42776C24.1465 6.45319 24.0817 6.47861 24.0212 6.50404C23.9773 6.52311 23.9355 6.54006 23.8937 6.55701C23.829 6.58455 23.7684 6.60997 23.7099 6.6354C23.5615 6.69684 23.432 6.75617 23.3171 6.80702C23.0852 6.91296 22.9223 6.99347 22.8324 7.03797C22.8115 7.04856 22.7927 7.05915 22.7802 7.06551C22.7802 7.06551 22.776 7.06763 22.7739 7.06975C22.7614 7.07398 22.7551 7.07822 22.751 7.08034C22.7489 7.08246 22.7468 7.08246 22.7468 7.08246C8.9355 13.2904 4.85542 26.8781 4.85542 26.8781C4.20361 29.0074 3.61238 31.1071 3.22798 33.2958C3.19038 33.5225 3.15486 33.7492 3.12143 33.9759C2.37143 39.0186 2.83522 43.9023 4.30806 48.5467C4.59428 49.4599 4.92227 50.3624 5.28787 51.2544C5.23773 51.0383 5.17923 50.782 5.17923 50.782C5.17923 50.782 3.93829 44.7223 5.09149 38.9042C5.09149 38.9042 6.09636 32.8466 10.1785 28.1663C10.1785 28.1663 16.8011 18.6001 29.1333 22.3482C29.1333 22.3482 31.7948 23.308 32.712 23.7889C33.6291 24.2381 35.2252 24.9288 35.2252 24.9288C43.9494 29.2172 51.3429 30.5668 51.3429 30.5668C66.9884 33.2365 66.1005 25.4988 66.1005 25.4988ZM36.9989 13.693L26.1166 10.2606C26.0581 10.2606 25.7635 10.1123 25.2308 10.2606C25.2308 10.2606 19.2872 11.7904 20.3213 15.0914C20.3213 15.0914 20.9418 17.1593 22.6277 19.17L34.6152 18.6933L34.4689 19.0005C34.3352 19.2781 34.0636 19.4603 33.7586 19.4751L22.6674 20.0154C22.6549 20.0175 22.6402 20.0175 22.6277 20.0175C22.3833 20.0175 22.1514 19.9073 21.9905 19.7188C20.2147 17.6 19.5483 15.4283 19.5212 15.3372C19.2475 14.4664 19.3352 13.5744 19.7739 12.7735C21.0024 10.5318 24.6166 9.54446 25.0239 9.44064C25.237 9.3792 25.4648 9.34742 25.6841 9.34742C25.9641 9.34742 26.1646 9.40039 26.267 9.42793C26.3004 9.43429 26.3338 9.44276 26.3652 9.45124L36.4494 12.6315C36.6834 12.7057 36.8714 12.8773 36.9696 13.104C37.049 13.2904 37.0595 13.5002 36.9989 13.693ZM47.9125 17.9687C47.9021 18.8458 47.2001 19.5556 46.329 19.5599H46.3164C45.4411 19.562 44.7308 18.8522 44.7182 17.9687V17.939C44.7161 17.0491 45.4244 16.3245 46.3039 16.3203H46.3164C47.1939 16.316 47.9083 17.0343 47.9125 17.9263V17.9687Z" fill="white"/>
<path d="M3.04017 47.1802C2.32986 46.3306 1.6676 45.4407 1.09936 44.483C0.654372 43.6736 0.182227 42.8028 0.033898 41.8748C-0.114431 40.9447 0.240723 40.0442 0.773452 39.2941C1.15785 38.7242 1.63209 38.275 1.86816 37.5843C1.90368 37.489 1.93501 37.3936 1.96217 37.2961C1.81802 40.6184 2.17735 43.9215 3.04017 47.1802Z" fill="white"/>
<path d="M4.32269 48.5615C4.32269 48.5615 4.31224 48.553 4.30806 48.5467C2.83522 43.9024 2.37143 39.0186 3.12143 33.976C2.37979 39.0144 2.85194 43.913 4.32269 48.5615Z" fill="white"/>
<path d="M23.3174 6.80712C23.4323 6.75627 23.5618 6.69694 23.7101 6.6355C23.5639 6.69694 23.4323 6.75627 23.3174 6.80712Z" fill="white"/>
<path d="M33.7944 3.55053C27.1864 3.8747 22.8139 6.09304 22.3835 6.31975C15.0799 9.60807 10.4921 14.941 7.92667 18.8374C5.14395 23.0665 4.09938 26.4883 4.05759 26.626C3.43921 28.6452 2.81247 30.8317 2.40509 33.1518C2.28183 33.8764 2.18364 34.5989 2.11052 35.3214C1.80551 32.211 -0.79338 29.0223 0.921801 25.948C1.51303 24.9289 2.31108 23.9691 3.25746 23.2487C5.50537 21.4795 6.51024 20.579 6.65857 17.4009C6.71707 16.3203 6.68782 15.2101 6.8069 14.1316C6.92598 12.7502 7.36888 11.551 8.46358 10.6526C9.46846 9.84114 10.7407 9.39196 11.9817 9.1822C13.1934 8.97244 14.3779 9.06143 15.5604 8.61225C16.9204 8.10163 18.1029 7.20328 19.0785 6.12271C19.9371 5.16291 20.7059 4.11412 21.6231 3.15432C24.669 -0.055608 29.6955 0.694434 33.0673 2.97422C33.2846 3.12042 33.5458 3.33441 33.7944 3.55053Z" fill="white"/>
<path d="M2.11024 35.3214C2.03921 35.9803 1.99116 36.6393 1.96191 37.2961C2.12069 36.7558 2.15829 36.1965 2.13322 35.635C2.12904 35.5312 2.12069 35.4252 2.11024 35.3214Z" fill="white"/>
<path d="M74.1729 53.331C74.1729 53.331 71.8372 62.6895 60.2153 70.7874C60.2153 70.7874 47.5886 80.1439 29.1039 73.7855C29.1039 73.7855 16.6234 69.7662 8.93539 58.13C8.57189 57.5791 8.223 57.0218 7.88874 56.4604C7.77175 56.007 7.58999 55.5705 7.40406 55.1425C5.28776 50.2693 4.88247 44.2605 5.91033 39.0717C5.91241 39.0632 5.9145 39.0547 5.9145 39.0441C5.92495 38.9869 6.92565 33.1752 10.8052 28.7279C10.824 28.7046 10.8449 28.6791 10.8616 28.6537C10.9055 28.5923 15.3699 22.325 23.5364 22.325C25.262 22.325 27.0566 22.6046 28.8741 23.1534C29.6158 23.4225 31.6234 24.1725 32.3275 24.5412C32.3358 24.5454 32.3421 24.5497 32.3483 24.5518C32.8351 24.7912 33.4974 25.0899 34.0259 25.3251C31.1032 26.2087 24.0064 29.0711 21.2676 36.5355C17.7787 46.0424 22.5983 54.3797 22.5983 54.3797C22.5983 54.3797 25.8804 60.8886 33.0378 63.8888C33.0378 63.8888 27.3302 58.7296 27.4786 53.1805L27.5078 53.2102C27.7146 53.511 28.7801 54.6509 28.7801 54.6509C29.9626 55.9413 31.2327 57.1405 32.5635 58.2507C39.6332 64.2172 48.2383 67.3084 57.4055 65.1176C57.4055 65.1176 50.3964 65.5668 45.7251 60.2593C45.7251 60.2593 56.8351 60.7996 67.0949 49.5617C66.817 49.8138 61.6485 54.403 54.6854 53.0915C54.6854 53.0915 61.1032 49.6422 65.6283 39.9849C65.6283 39.9849 71.0099 29.3063 66.9591 20.5494C66.9591 20.5494 76.8658 29.8466 66.9006 45.2309C67.0134 45.1546 70.6589 42.6333 74.6471 33.8362C74.6471 33.8362 76.8052 43.1037 70.4479 51.8923C70.4479 51.8923 67.5503 57.0812 60.7481 60.0792C60.7481 60.0792 64.7989 60.7699 74.1729 53.331Z" fill="white"/>
</g>
<defs>
<clipPath id="clip0_1446_373">
<rect width="75" height="75" fill="white"/>
</clipPath>
</defs>
</svg>
