<svg width="75" height="75" viewBox="0 0 75 75" fill="none" xmlns="http://www.w3.org/2000/svg">
<path d="M74.9318 5.96862C74.3855 3.10368 72.1666 0.784453 69.3331 0.170537C69.1966 0.136431 69.0601 0.136431 68.8894 0.102324C68.8552 0.102324 68.8211 0.0341064 68.787 0H6.17887C6.14474 0.0341064 6.1106 0.102324 6.04232 0.102324C3.20892 0.579814 0.819299 2.83083 0.170687 5.69577C0.13655 5.79809 0.0682749 5.93451 0 6.07094V68.7927C0.0341375 68.8608 0.102412 68.8949 0.102412 68.9631C0.785161 72.1009 2.69686 74.045 5.80336 74.8294C5.90578 74.8635 5.97405 74.9318 6.04232 75H68.8894C68.9576 74.9659 68.9918 74.8976 69.0601 74.8635C72.1666 74.1473 74.0783 72.2715 74.8635 69.1678C74.8976 69.0654 74.8635 68.929 74.8976 68.8267C74.8976 68.7927 74.9659 68.7586 75 68.7243V6.17326C75 6.10504 74.9318 6.07094 74.9318 5.96862ZM43.5253 41.5757H43.1497C40.3164 41.5757 37.4488 41.5757 34.6154 41.5757C34.4789 41.5757 34.3422 41.5757 34.2057 41.5757C34.2057 41.6098 34.1716 41.6098 34.1716 41.6439C34.1716 41.7804 34.1716 41.9168 34.1716 42.0531V68.3492H26.6955V41.6098H17.3077V35.6412H43.4911V41.5757H43.5253ZM68.7187 59.4133C68.6504 60.573 68.4798 61.6985 68.0019 62.7899C67.8653 63.1309 67.7629 63.4379 67.5921 63.779C66.9777 65.075 65.9536 65.9958 64.7587 66.7463C63.3932 67.5989 61.8912 68.0764 60.3209 68.3833C58.5799 68.7243 56.8389 68.8267 55.0637 68.7586C54.2102 68.7243 53.3569 68.7243 52.5034 68.6221C50.4893 68.3833 48.5094 67.9399 46.6659 67.0532C46.5635 67.019 46.427 66.8485 46.427 66.7463C46.427 64.5293 46.427 62.3124 46.427 60.0954C46.427 60.0614 46.427 60.0273 46.427 59.9591C46.9731 60.3342 47.5194 60.7094 48.0655 61.0164C49.3969 61.8008 50.8649 62.3465 52.3669 62.6876C53.6641 62.9946 54.9614 63.0287 56.2585 62.9605C57.2485 62.9264 58.2385 62.6876 59.1261 62.2442C59.9112 61.8349 60.5599 61.2892 60.7305 60.3683C60.9013 59.5498 60.833 58.7312 60.355 58.015C59.6723 56.9918 58.7164 56.3437 57.6581 55.7981C56.4634 55.2183 55.2685 54.7066 54.0396 54.161C52.2304 53.3423 50.4551 52.4557 48.9873 51.0914C47.7925 49.9659 46.9049 48.6358 46.4953 47.0327C46.2563 46.0777 46.188 45.1227 46.2221 44.1678C46.2562 41.8145 47.1098 39.8022 48.7824 38.131C50.1479 36.7667 51.8206 35.9482 53.6641 35.4706C54.9271 35.1637 56.1903 34.925 57.4875 34.8909C58.4093 34.8909 59.3309 34.7885 60.2185 34.8226C61.6181 34.8567 62.9836 34.925 64.3491 35.2661C65.2368 35.5047 66.1584 35.7435 67.046 35.9482C67.2166 35.9823 67.2849 36.0846 67.2849 36.2893C67.2849 38.4038 67.2849 40.5525 67.2849 42.6671C67.2849 42.7353 67.2849 42.8036 67.2507 42.9059C66.9777 42.7353 66.7387 42.5989 66.4997 42.4625C65.4074 41.8486 64.2468 41.4393 63.0519 41.1323C61.7205 40.8254 60.3891 40.6207 59.0236 40.6548C58.102 40.6889 57.1461 40.8254 56.2926 41.1323C55.2344 41.5075 54.381 42.1214 54.0055 43.2469C53.6982 44.1337 53.9373 44.8841 54.4834 45.6003C55.1661 46.487 56.0879 47.1009 57.0779 47.5785C58.4093 48.2265 59.7747 48.7721 61.0719 49.3861C62.574 50.1023 64.076 50.8185 65.3391 51.8758C66.4315 52.7967 67.4215 53.8199 67.9676 55.1842C68.2749 56.0027 68.548 56.8554 68.548 57.7762C68.6846 58.3219 68.7529 58.8677 68.7187 59.4133Z" fill="white"/>
</svg>
